<svg xmlns="http://www.w3.org/2000/svg" viewBox="0 0 760 540" width="760" height="540" font-family="-apple-system, Segoe UI, Helvetica, Arial, sans-serif">
<rect width="760" height="540" fill="#fcfcfb"/>
<text x="84" y="24" text-anchor="start" font-size="16" fill="#0b0b0b"><tspan font-weight="600">Average cost per tonne in the March peak</tspan></text>
<text x="84" y="42" text-anchor="start" font-size="12" fill="#52514e">Same allocations as the marginal-cost chart; only volume actually shipped is averaged.</text>
<defs><clipPath id="plot"><rect x="84" y="56" width="652" height="350"/></clipPath></defs>
<line x1="156.4" y1="56" x2="156.4" y2="406" stroke="#e4e2dc" stroke-width="1"/>
<text x="156.4" y="424" text-anchor="middle" font-size="12" fill="#52514e">1000</text>
<line x1="253" y1="56" x2="253" y2="406" stroke="#e4e2dc" stroke-width="1"/>
<text x="253" y="424" text-anchor="middle" font-size="12" fill="#52514e">2000</text>
<line x1="349.6" y1="56" x2="349.6" y2="406" stroke="#e4e2dc" stroke-width="1"/>
<text x="349.6" y="424" text-anchor="middle" font-size="12" fill="#52514e">3000</text>
<line x1="446.2" y1="56" x2="446.2" y2="406" stroke="#e4e2dc" stroke-width="1"/>
<text x="446.2" y="424" text-anchor="middle" font-size="12" fill="#52514e">4000</text>
<line x1="542.8" y1="56" x2="542.8" y2="406" stroke="#e4e2dc" stroke-width="1"/>
<text x="542.8" y="424" text-anchor="middle" font-size="12" fill="#52514e">5000</text>
<line x1="639.4" y1="56" x2="639.4" y2="406" stroke="#e4e2dc" stroke-width="1"/>
<text x="639.4" y="424" text-anchor="middle" font-size="12" fill="#52514e">6000</text>
<line x1="736" y1="56" x2="736" y2="406" stroke="#e4e2dc" stroke-width="1"/>
<text x="736" y="424" text-anchor="middle" font-size="12" fill="#52514e">7000</text>
<line x1="84" y1="406" x2="736" y2="406" stroke="#e4e2dc" stroke-width="1"/>
<text x="76" y="410" text-anchor="end" font-size="12" fill="#52514e">450</text>
<line x1="84" y1="318.5" x2="736" y2="318.5" stroke="#e4e2dc" stroke-width="1"/>
<text x="76" y="322.5" text-anchor="end" font-size="12" fill="#52514e">500</text>
<line x1="84" y1="231" x2="736" y2="231" stroke="#e4e2dc" stroke-width="1"/>
<text x="76" y="235" text-anchor="end" font-size="12" fill="#52514e">550</text>
<line x1="84" y1="143.5" x2="736" y2="143.5" stroke="#e4e2dc" stroke-width="1"/>
<text x="76" y="147.5" text-anchor="end" font-size="12" fill="#52514e">600</text>
<line x1="84" y1="56" x2="736" y2="56" stroke="#e4e2dc" stroke-width="1"/>
<text x="76" y="60" text-anchor="end" font-size="12" fill="#52514e">650</text>
<g clip-path="url(#plot)">
<path d="M84 41.5 L108.1 41.5 L132.3 41.5 L156.4 27.4 L180.6 4.6 L204.7 -10.6 L228.9 -21.9 L253 -31.4 L277.2 -38.9 L301.3 -44.8 L325.5 -49.6 L349.6 -53.7 L373.8 -57.1 L397.9 -60.1 L422.1 -62.6 L446.2 -65.1 L470.4 -67.3 L494.5 -69.3 L518.7 -71.1 L542.8 -72.8 L567 -74.2 L591.1 -75.6 L615.3 -76.8 L639.4 -81.4 L663.6 -87.2 L687.7 -92.6 L711.9 -99.7 L736 -101.1 " fill="none" stroke="#2a78d6" stroke-width="2" stroke-linejoin="round" stroke-linecap="round" stroke-dasharray=""/>
<path d="M84 233.1 L108.1 233.1 L132.3 233.1 L156.4 217.7 L180.6 192.9 L204.7 176.3 L228.9 164.5 L253 155.6 L277.2 128.7 L301.3 107.2 L325.5 89.6 L349.6 74.1 L373.8 60.8 L397.9 49.5 L422.1 39.6 L446.2 30.8 L470.4 22.9 L494.5 15.8 L518.7 9.5 L542.8 3.9 L567 -1.2 L591.1 -5.9 L615.3 -10.1 L639.4 -17.5 L663.6 -25.9 L687.7 -33.6 L711.9 -42.9 L736 -44.8 " fill="none" stroke="#1baf7a" stroke-width="2" stroke-linejoin="round" stroke-linecap="round" stroke-dasharray=""/>
<path d="M84 233.1 L108.1 233.1 L132.3 233.1 L156.4 217.7 L180.6 192.9 L204.7 176.3 L228.9 164.5 L253 155.6 L277.2 131.2 L301.3 111.6 L325.5 95.6 L349.6 81 L373.8 68.2 L397.9 57.1 L422.1 47.1 L446.2 38 L470.4 30 L494.5 22.9 L518.7 16.4 L542.8 10.4 L567 5 L591.1 0.1 L615.3 -4.5 L639.4 -12.1 L663.6 -20.7 L687.7 -28.6 L711.9 -38.1 L736 -40 " fill="none" stroke="#4a3aa7" stroke-width="2" stroke-linejoin="round" stroke-linecap="round" stroke-dasharray=""/>
<path d="M84 41.5 L108.1 41.5 L132.3 41.5 L156.4 34.4 L180.6 23 L204.7 8.4 L228.9 -5.2 L253 -15.4 L277.2 -23.9 L301.3 -31.3 L325.5 -37.4 L349.6 -42.5 L373.8 -46.8 L397.9 -50.5 L422.1 -53.6 L446.2 -56.4 L470.4 -58.9 L494.5 -61.3 L518.7 -63.6 L542.8 -65.6 L567 -67.4 L591.1 -69 L615.3 -70.5 L639.4 -71.9 L663.6 -73.2 L687.7 -78.6 L711.9 -84.1 L736 -89.2 " fill="none" stroke="#eb6834" stroke-width="2" stroke-linejoin="round" stroke-linecap="round" stroke-dasharray="6 4"/>
<path d="M84 233.1 L108.1 233.1 L132.3 233.1 L156.4 217.7 L180.6 192.9 L204.7 176.3 L228.9 164.5 L253 155.6 L277.2 135.8 L301.3 119 L325.5 102.4 L349.6 88.5 L373.8 76.7 L397.9 65.2 L422.1 55.1 L446.2 46.3 L470.4 37.9 L494.5 30.4 L518.7 23.6 L542.8 17.5 L567 11.9 L591.1 6.6 L615.3 1.8 L639.4 -2.6 L663.6 -6.6 L687.7 -14.6 L711.9 -22.5 L736 -29.8 " fill="none" stroke="#eda100" stroke-width="2" stroke-linejoin="round" stroke-linecap="round" stroke-dasharray="6 4"/>
</g>
<line x1="84" y1="406" x2="736" y2="406" stroke="#8d8b85" stroke-width="1"/>
<line x1="84" y1="56" x2="84" y2="406" stroke="#8d8b85" stroke-width="1"/>
<text x="410" y="446" text-anchor="middle" font-size="13" fill="#0b0b0b">supply to export (kt/month)</text>
<text transform="translate(22 231) rotate(-90)" text-anchor="middle" font-size="13" fill="#0b0b0b">average cost (R$/t, generalized)</text>
<line x1="84" y1="472" x2="106" y2="472" stroke="#2a78d6" stroke-width="2" stroke-dasharray=""/>
<text x="114" y="476" text-anchor="start" font-size="12" fill="#0b0b0b">base</text>
<line x1="162.4" y1="472" x2="184.4" y2="472" stroke="#1baf7a" stroke-width="2" stroke-dasharray=""/>
<text x="192.4" y="476" text-anchor="start" font-size="12" fill="#0b0b0b">+ Ferrograo</text>
<line x1="287" y1="472" x2="309" y2="472" stroke="#4a3aa7" stroke-width="2" stroke-dasharray=""/>
<text x="317" y="476" text-anchor="start" font-size="12" fill="#0b0b0b">+ both railways</text>
<line x1="438" y1="472" x2="460" y2="472" stroke="#eb6834" stroke-width="2" stroke-dasharray="6 4"/>
<text x="468" y="476" text-anchor="start" font-size="12" fill="#0b0b0b">ports x1.5</text>
<line x1="84" y1="490" x2="106" y2="490" stroke="#eda100" stroke-width="2" stroke-dasharray="6 4"/>
<text x="114" y="494" text-anchor="start" font-size="12" fill="#0b0b0b">both railways + ports x1.5</text>
</svg>
