<svg xmlns="http://www.w3.org/2000/svg" viewBox="0 0 760 540" width="760" height="540" font-family="-apple-system, Segoe UI, Helvetica, Arial, sans-serif">
<rect width="760" height="540" fill="#fcfcfb"/>
<text x="84" y="24" text-anchor="start" font-size="16" fill="#0b0b0b"><tspan font-weight="600">How much extra cost the northern corridors need to match reality</tspan></text>
<text x="84" y="42" text-anchor="start" font-size="12" fill="#52514e">Mean absolute error of the modelled port split (5 ports, 24 months) against Comex Stat.</text>
<defs><clipPath id="plot"><rect x="84" y="56" width="652" height="350"/></clipPath></defs>
<line x1="84" y1="56" x2="84" y2="406" stroke="#e4e2dc" stroke-width="1"/>
<text x="84" y="424" text-anchor="middle" font-size="12" fill="#52514e">0</text>
<line x1="247" y1="56" x2="247" y2="406" stroke="#e4e2dc" stroke-width="1"/>
<text x="247" y="424" text-anchor="middle" font-size="12" fill="#52514e">50</text>
<line x1="410" y1="56" x2="410" y2="406" stroke="#e4e2dc" stroke-width="1"/>
<text x="410" y="424" text-anchor="middle" font-size="12" fill="#52514e">100</text>
<line x1="573" y1="56" x2="573" y2="406" stroke="#e4e2dc" stroke-width="1"/>
<text x="573" y="424" text-anchor="middle" font-size="12" fill="#52514e">150</text>
<line x1="736" y1="56" x2="736" y2="406" stroke="#e4e2dc" stroke-width="1"/>
<text x="736" y="424" text-anchor="middle" font-size="12" fill="#52514e">200</text>
<line x1="84" y1="406" x2="736" y2="406" stroke="#e4e2dc" stroke-width="1"/>
<text x="76" y="410" text-anchor="end" font-size="12" fill="#52514e">0</text>
<line x1="84" y1="318.5" x2="736" y2="318.5" stroke="#e4e2dc" stroke-width="1"/>
<text x="76" y="322.5" text-anchor="end" font-size="12" fill="#52514e">5</text>
<line x1="84" y1="231" x2="736" y2="231" stroke="#e4e2dc" stroke-width="1"/>
<text x="76" y="235" text-anchor="end" font-size="12" fill="#52514e">10</text>
<line x1="84" y1="143.5" x2="736" y2="143.5" stroke="#e4e2dc" stroke-width="1"/>
<text x="76" y="147.5" text-anchor="end" font-size="12" fill="#52514e">15</text>
<line x1="84" y1="56" x2="736" y2="56" stroke="#e4e2dc" stroke-width="1"/>
<text x="76" y="60" text-anchor="end" font-size="12" fill="#52514e">20</text>
<g clip-path="url(#plot)">
<path d="M84 174.8 L116.6 205.2 L149.2 236.1 L181.8 256 L214.4 251.8 L247 246.4 L279.6 222.8 L312.2 212.8 L344.8 203.4 L377.4 202.9 L410 198.3 L442.6 196.7 L475.2 196.1 L507.8 195.1 L540.4 195.1 L573 195.1 L605.6 194.6 L638.2 194.6 L670.8 194.6 L703.4 193.2 L736 193.2 " fill="none" stroke="#2a78d6" stroke-width="2" stroke-linejoin="round" stroke-linecap="round" stroke-dasharray=""/>
</g>
<line x1="84" y1="406" x2="736" y2="406" stroke="#8d8b85" stroke-width="1"/>
<line x1="84" y1="56" x2="84" y2="406" stroke="#8d8b85" stroke-width="1"/>
<text x="410" y="446" text-anchor="middle" font-size="13" fill="#0b0b0b">friction added to the BR-163 / BR-364 truck legs (R$/t)</text>
<text transform="translate(22 231) rotate(-90)" text-anchor="middle" font-size="13" fill="#0b0b0b">mean absolute share error (pp)</text>
</svg>
